{
  "accessors": [
    {
      "bufferView": 2,
      "componentType": 5126,
      "count": 427,
      "max": [
        3.7712099552154541,
        3.4626600742340088,
        7.5264902114868164
      ],
      "min": [
        3.2500898838043213,
        0.92044001817703247,
        4.9842801094055176
      ],
      "type": "VEC3"
    },
    {
      "bufferView": 2,
      "byteOffset": 5124,
      "componentType": 5126,
      "count": 427,
      "max": [
        1,
        0.99118626117706299,
        0.9911879301071167
      ],
      "min": [
        -0.9980546236038208,
        -0.99118721485137939,
        -0.99119085073471069
      ],
      "type": "VEC3"
    },
    {
      "bufferView": 3,
      "componentType": 5126,
      "count": 427,
      "max": [
        0.99961769580841064,
        0.98270899057388306,
        0.99301475286483765,
        1
      ],
      "min": [
        -0.9996941089630127,
        -0.98272836208343506,
        -0.98163491487503052,
        -1
      ],
      "type": "VEC4"
    },
    {
      "bufferView": 1,
      "componentType": 5126,
      "count": 427,
      "max": [
        0.3132300078868866,
        0.40038999915122986
      ],
      "min": [
        0.10925000160932541,
        0.34375
      ],
      "type": "VEC2"
    },
    {
      "bufferView": 0,
      "componentType": 5125,
      "count": 1098,
      "max": [
        426
      ],
      "min": [
        0
      ],
      "type": "SCALAR"
    },
    {
      "bufferView": 2,
      "byteOffset": 10248,
      "componentType": 5126,
      "count": 427,
      "max": [
        3.7712099552154541,
        3.4626600742340088,
        4.3954300880432129
      ],
      "min": [
        3.2500898838043213,
        0.92044001817703247,
        1.8532099723815918
      ],
      "type": "VEC3"
    },
    {
      "bufferView": 2,
      "byteOffset": 15372,
      "componentType": 5126,
      "count": 427,
      "max": [
        1,
        0.99118626117706299,
        0.99118638038635254
      ],
      "min": [
        -0.9980546236038208,
        -0.99118721485137939,
        -0.99118936061859131
      ],
      "type": "VEC3"
    },
    {
      "bufferView": 3,
      "byteOffset": 6832,
      "componentType": 5126,
      "count": 427,
      "max": [
        0.99961709976196289,
        0.98270910978317261,
        0.99301481246948242,
        1
      ],
      "min": [
        -0.9996793270111084,
        -0.98272824287414551,
        -0.98163491487503052,
        -1
      ],
      "type": "VEC4"
    },
    {
      "bufferView": 1,
      "byteOffset": 3416,
      "componentType": 5126,
      "count": 427,
      "max": [
        0.3132300078868866,
        0.40038999915122986
      ],
      "min": [
        0.10925000160932541,
        0.34375
      ],
      "type": "VEC2"
    },
    {
      "bufferView": 0,
      "byteOffset": 4392,
      "componentType": 5125,
      "count": 1098,
      "max": [
        426
      ],
      "min": [
        0
      ],
      "type": "SCALAR"
    },
    {
      "bufferView": 2,
      "byteOffset": 20496,
      "componentType": 5126,
      "count": 427,
      "max": [
        3.7712099552154541,
        3.4626600742340088,
        -1.8395299911499023
      ],
      "min": [
        3.2500898838043213,
        0.92044001817703247,
        -4.3817501068115234
      ],
      "type": "VEC3"
    },
    {
      "bufferView": 2,
      "byteOffset": 25620,
      "componentType": 5126,
      "count": 427,
      "max": [
        1,
        0.99118626117706299,
        0.99118494987487793
      ],
      "min": [
        -0.9980546236038208,
        -0.99118959903717041,
        -0.99118721485137939
      ],
      "type": "VEC3"
    },
    {
      "bufferView": 3,
      "byteOffset": 13664,
      "componentType": 5126,
      "count": 427,
      "max": [
        0.99961698055267334,
        0.98270928859710693,
        0.99301481246948242,
        1
      ],
      "min": [
        -0.99967783689498901,
        -0.98272836208343506,
        -0.98163491487503052,
        -1
      ],
      "type": "VEC4"
    },
    {
      "bufferView": 1,
      "byteOffset": 6832,
      "componentType": 5126,
      "count": 427,
      "max": [
        0.3132300078868866,
        0.40038999915122986
      ],
      "min": [
        0.10925000160932541,
        0.34375
      ],
      "type": "VEC2"
    },
    {
      "bufferView": 0,
      "byteOffset": 8784,
      "componentType": 5125,
      "count": 1098,
      "max": [
        426
      ],
      "min": [
        0
      ],
      "type": "SCALAR"
    },
    {
      "bufferView": 2,
      "byteOffset": 30744,
      "componentType": 5126,
      "count": 427,
      "max": [
        3.7712099552154541,
        3.4626600742340088,
        -4.976560115814209
      ],
      "min": [
        3.2500898838043213,
        0.92044001817703247,
        -7.5187702178955078
      ],
      "type": "VEC3"
    },
    {
      "bufferView": 2,
      "byteOffset": 35868,
      "componentType": 5126,
      "count": 427,
      "max": [
        1,
        0.99118936061859131,
        0.99118936061859131
      ],
      "min": [
        -0.9980546236038208,
        -0.99118638038635254,
        -0.99118566513061523
      ],
      "type": "VEC3"
    },
    {
      "bufferView": 3,
      "byteOffset": 20496,
      "componentType": 5126,
      "count": 427,
      "max": [
        0.99961709976196289,
        0.98270910978317261,
        0.99301135540008545,
        1
      ],
      "min": [
        -0.99967849254608154,
        -0.98272818326950073,
        -0.98163473606109619,
        -1
      ],
      "type": "VEC4"
    },
    {
      "bufferView": 1,
      "byteOffset": 10248,
      "componentType": 5126,
      "count": 427,
      "max": [
        0.3132300078868866,
        0.40038999915122986
      ],
      "min": [
        0.10925000160932541,
        0.34375
      ],
      "type": "VEC2"
    },
    {
      "bufferView": 0,
      "byteOffset": 13176,
      "componentType": 5125,
      "count": 1098,
      "max": [
        426
      ],
      "min": [
        0
      ],
      "type": "SCALAR"
    },
    {
      "bufferView": 2,
      "byteOffset": 40992,
      "componentType": 5126,
      "count": 12368,
      "max": [
        8.9877901077270508,
        6.8516697883605957,
        12.184980392456055
      ],
      "min": [
        -10.254890441894531,
        0.032790001481771469,
        -12.184980392456055
      ],
      "type": "VEC3"
    },
    {
      "bufferView": 2,
      "byteOffset": 189408,
      "componentType": 5126,
      "count": 12368,
      "max": [
        1,
        1,
        1
      ],
      "min": [
        -1,
        -1,
        -1
      ],
      "type": "VEC3"
    },
    {
      "bufferView": 3,
      "byteOffset": 27328,
      "componentType": 5126,
      "count": 12368,
      "max": [
        1,
        1,
        1,
        1
      ],
      "min": [
        -1,
        -1,
        -1,
        -1
      ],
      "type": "VEC4"
    },
    {
      "bufferView": 1,
      "byteOffset": 13664,
      "componentType": 5126,
      "count": 12368,
      "max": [
        0.99901998043060303,
        0.99852997064590454
      ],
      "min": [
        0.0010999999940395355,
        0.0019499999471008778
      ],
      "type": "VEC2"
    },
    {
      "bufferView": 0,
      "byteOffset": 17568,
      "componentType": 5125,
      "count": 37545,
      "max": [
        12367
      ],
      "min": [
        0
      ],
      "type": "SCALAR"
    }
  ],
  "asset": {
    "extras": {
      "author": "GixenDK (https://sketchfab.com/JozeGames)",
      "license": "CC-BY-4.0 (http://creativecommons.org/licenses/by/4.0/)",
      "source": "https://sketchfab.com/models/5613e62d60264519b705c76cfd83aa61",
      "title": "AC130"
    },
    "generator": "Sketchfab-3.21.2",
    "version": "2.0"
  },
  "bufferViews": [
    {
      "buffer": 0,
      "byteLength": 167748,
      "byteOffset": 0,
      "name": "floatBufferViews",
      "target": 34963
    },
    {
      "buffer": 0,
      "byteLength": 112608,
      "byteOffset": 167748,
      "byteStride": 8,
      "name": "floatBufferViews",
      "target": 34962
    },
    {
      "buffer": 0,
      "byteLength": 337824,
      "byteOffset": 280356,
      "byteStride": 12,
      "name": "floatBufferViews",
      "target": 34962
    },
    {
      "buffer": 0,
      "byteLength": 225216,
      "byteOffset": 618180,
      "byteStride": 16,
      "name": "floatBufferViews",
      "target": 34962
    }
  ],
  "buffers": [
    {
      "byteLength": 843396,
      "uri": "scene.bin"
    }
  ],
  "images": [
    {
      "uri": "textures/AC130_normal.png"
    },
    {
      "uri": "textures/AC130_baseColor.png"
    }
  ],
  "materials": [
    {
      "doubleSided": true,
      "emissiveFactor": [
        0,
        0,
        0
      ],
      "name": "AC130",
      "normalTexture": {
        "index": 0,
        "scale": 1,
        "texCoord": 0
      },
      "pbrMetallicRoughness": {
        "baseColorFactor": [
          1,
          1,
          1,
          1
        ],
        "baseColorTexture": {
          "index": 1,
          "texCoord": 0
        },
        "metallicFactor": 0.75331439389999999,
        "roughnessFactor": 0.4866477273
      }
    }
  ],
  "meshes": [
    {
      "name": "4_0",
      "primitives": [
        {
          "attributes": {
            "NORMAL": 1,
            "POSITION": 0,
            "TANGENT": 2,
            "TEXCOORD_0": 3
          },
          "indices": 4,
          "material": 0,
          "mode": 4
        }
      ]
    },
    {
      "name": "3_0",
      "primitives": [
        {
          "attributes": {
            "NORMAL": 6,
            "POSITION": 5,
            "TANGENT": 7,
            "TEXCOORD_0": 8
          },
          "indices": 9,
          "material": 0,
          "mode": 4
        }
      ]
    },
    {
      "name": "2_0",
      "primitives": [
        {
          "attributes": {
            "NORMAL": 11,
            "POSITION": 10,
            "TANGENT": 12,
            "TEXCOORD_0": 13
          },
          "indices": 14,
          "material": 0,
          "mode": 4
        }
      ]
    },
    {
      "name": "1_0",
      "primitives": [
        {
          "attributes": {
            "NORMAL": 16,
            "POSITION": 15,
            "TANGENT": 17,
            "TEXCOORD_0": 18
          },
          "indices": 19,
          "material": 0,
          "mode": 4
        }
      ]
    },
    {
      "name": "AC130_0",
      "primitives": [
        {
          "attributes": {
            "NORMAL": 21,
            "POSITION": 20,
            "TANGENT": 22,
            "TEXCOORD_0": 23
          },
          "indices": 24,
          "material": 0,
          "mode": 4
        }
      ]
    }
  ],
  "nodes": [
    {
      "children": [
        1
      ],
      "name": "RootNode (gltf orientation matrix)",
      "rotation": [
        -0.70710678118654746,
        -0,
        -0,
        0.70710678118654757
      ]
    },
    {
      "children": [
        2
      ],
      "name": "RootNode (model correction matrix)"
    },
    {
      "children": [
        3
      ],
      "name": "Root"
    },
    {
      "children": [
        4,
        6,
        8,
        10,
        12
      ],
      "name": "Empty"
    },
    {
      "children": [
        5
      ],
      "matrix": [
        0.80655999999999994,
        0,
        0,
        0,
        0,
        -0,
        0.80655999999999994,
        0,
        0,
        -0.80655999999999994,
        -0,
        0,
        0,
        0,
        0,
        1
      ],
      "name": "4"
    },
    {
      "mesh": 0,
      "name": "4_0"
    },
    {
      "children": [
        7
      ],
      "matrix": [
        0.80655999999999994,
        0,
        0,
        0,
        0,
        -0,
        0.80655999999999994,
        0,
        0,
        -0.80655999999999994,
        -0,
        0,
        0,
        0,
        0,
        1
      ],
      "name": "3"
    },
    {
      "mesh": 1,
      "name": "3_0"
    },
    {
      "children": [
        9
      ],
      "matrix": [
        0.80655999999999994,
        0,
        0,
        0,
        0,
        -0,
        0.80655999999999994,
        0,
        0,
        -0.80655999999999994,
        -0,
        0,
        0,
        0,
        0,
        1
      ],
      "name": "2"
    },
    {
      "mesh": 2,
      "name": "2_0"
    },
    {
      "children": [
        11
      ],
      "matrix": [
        0.80655999999999994,
        0,
        0,
        0,
        0,
        -0,
        0.80655999999999994,
        0,
        0,
        -0.80655999999999994,
        -0,
        0,
        0,
        0,
        0,
        1
      ],
      "name": "1"
    },
    {
      "mesh": 3,
      "name": "1_0"
    },
    {
      "children": [
        13
      ],
      "matrix": [
        0.80655999999999994,
        0,
        0,
        0,
        0,
        -0,
        0.80655999999999994,
        0,
        0,
        -0.80655999999999994,
        -0,
        0,
        0,
        0,
        0,
        1
      ],
      "name": "AC130"
    },
    {
      "mesh": 4,
      "name": "AC130_0"
    }
  ],
  "samplers": [
    {
      "magFilter": 9729,
      "minFilter": 9987,
      "wrapS": 10497,
      "wrapT": 10497
    }
  ],
  "scene": 0,
  "scenes": [
    {
      "name": "OSG_Scene",
      "nodes": [
        0
      ]
    }
  ],
  "textures": [
    {
      "sampler": 0,
      "source": 0
    },
    {
      "sampler": 0,
      "source": 1
    }
  ]
}

